<?xml version="1.0" encoding="utf-8"?>
<!-- Generator: Adobe Illustrator 26.0.3, SVG Export Plug-In . SVG Version: 6.00 Build 0)  -->
<svg version="1.1" id="Layer_1" xmlns="http://www.w3.org/2000/svg" xmlns:xlink="http://www.w3.org/1999/xlink" x="0px" y="0px"
	 viewBox="0 0 270 150" style="enable-background:new 0 0 270 150;" xml:space="preserve">
<style type="text/css">
	.st0{fill:#A2A09E;}
</style>
<g>
	<path class="st0" d="M123.2,21.7l-0.6-8.1l-9,0l-0.6,8.1L123.2,21.7z M93.3,17.6l-4.8,72H81V96h102.4v-6.4h-7.8l0-25.1L142.6,54
		l-17.1,4l-2.1-33.2h-10.6l-2.3,36.6l-3.8,0.8l-2.8-44.6L93.3,17.6z M103.6,14.6l-0.5-7.9h-9l-0.5,7.9H103.6z M101.8,89.6v-22
		l38.1-8.5v30.5H101.8z M172.2,89.4l-7.5,0.2V78.9l-9.6-1.7l0,12.4h-9.7V59.8l26.9,8L172.2,89.4z"/>
	<polygon class="st0" points="6.6,114.3 28.3,114.3 28.3,120 12.9,120 12.9,126 26.5,126 26.5,131.8 12.9,131.8 12.9,142.8 
		6.6,142.8 	"/>
	<path class="st0" d="M50.4,114.1h5.8l12.2,28.7h-6.5l-2.6-6.4h-12l-2.6,6.4h-6.4L50.4,114.1z M57,130.9l-3.8-9.2l-3.8,9.2H57z"/>
	<polygon class="st0" points="81.5,114.3 87.8,114.3 87.8,126.7 99.4,114.3 107,114.3 95.4,126.4 107.5,142.8 100,142.8 91.1,130.7 
		87.8,134.1 87.8,142.8 81.5,142.8 	"/>
	<polygon class="st0" points="126.5,120.1 117.8,120.1 117.8,114.3 141.4,114.3 141.4,120.1 132.7,120.1 132.7,142.8 126.5,142.8 	
		"/>
	<g>
		<path class="st0" d="M154.3,128.6L154.3,128.6c0-8.2,6.4-14.8,15.2-14.8c8.8,0,15.1,6.5,15.1,14.7v0.1c0,8.1-6.4,14.7-15.2,14.7
			C160.6,143.3,154.3,136.7,154.3,128.6 M178.1,128.6L178.1,128.6c0-5-3.6-9-8.6-9s-8.6,4-8.6,8.9v0.1c0,4.9,3.6,9,8.6,9
			S178.1,133.5,178.1,128.6"/>
		<path class="st0" d="M200.8,114.3h13c3.6,0,6.4,1,8.3,2.9c1.6,1.6,2.4,3.8,2.4,6.5v0.1c0,4.6-2.5,7.5-6.1,8.8l7,10.2h-7.3
			l-6.1-9.1H207v9.1h-6.3V114.3z M213.4,128.1c3.1,0,4.8-1.6,4.8-4V124c0-2.7-1.9-4.1-4.9-4.1H207v8.2H213.4z"/>
		<polygon class="st0" points="246.2,131.5 235.2,114.3 242.6,114.3 249.3,125.7 256.3,114.3 263.4,114.3 252.5,131.4 252.5,142.8 
			246.2,142.8 		"/>
	</g>
</g>
</svg>
