<?xml version="1.0" encoding="utf-8"?>
<!-- Generator: Adobe Illustrator 26.0.3, SVG Export Plug-In . SVG Version: 6.00 Build 0)  -->
<svg version="1.1" id="Layer_1" xmlns="http://www.w3.org/2000/svg" xmlns:xlink="http://www.w3.org/1999/xlink" x="0px" y="0px"
	 viewBox="0 0 110 60" style="enable-background:new 0 0 110 60;" xml:space="preserve">
<style type="text/css">
	.st0{fill:#74704C;}
</style>
<path class="st0" d="M50.1,7.6l-0.2-3.4l-3.8,0l-0.2,3.4H50.1z M37.5,5.9l-2,30.4h-3.2V39h43.3v-2.7h-3.3l0-10.6l-14-4.4l-7.2,1.7
	l-0.9-14h-4.5l-1,15.5l-1.6,0.3L41.9,5.8L37.5,5.9z M41.8,4.6l-0.2-3.3h-3.8l-0.2,3.3H41.8z M41,36.3V27l16.1-3.6v12.9H41z
	 M70.8,36.2l-3.2,0.1v-4.5l-4-0.7l0,5.2h-4.1V23.7l11.4,3.4L70.8,36.2z"/>
<polygon class="st0" points="0.8,46.7 10,46.7 10,49.1 3.5,49.1 3.5,51.7 9.2,51.7 9.2,54.1 3.5,54.1 3.5,58.7 0.8,58.7 "/>
<path class="st0" d="M19.3,46.6h2.4l5.2,12.1h-2.8L23.1,56H18l-1.1,2.7h-2.7L19.3,46.6z M22.1,53.7l-1.6-3.9l-1.6,3.9H22.1z"/>
<polygon class="st0" points="32.5,46.7 35.1,46.7 35.1,52 40,46.7 43.2,46.7 38.3,51.8 43.4,58.7 40.3,58.7 36.5,53.6 35.1,55.1 
	35.1,58.7 32.5,58.7 "/>
<polygon class="st0" points="51.5,49.1 47.8,49.1 47.8,46.7 57.8,46.7 57.8,49.1 54.1,49.1 54.1,58.7 51.5,58.7 "/>
<path class="st0" d="M63.1,52.6L63.1,52.6c0-3.5,2.7-6.3,6.4-6.3c3.7,0,6.4,2.8,6.4,6.2v0c0,3.4-2.7,6.2-6.4,6.2
	C65.8,58.7,63.1,56,63.1,52.6 M73.1,52.6L73.1,52.6c0-2.1-1.5-3.8-3.6-3.8c-2.1,0-3.6,1.7-3.6,3.7v0c0,2.1,1.5,3.8,3.7,3.8
	C71.6,56.3,73.1,54.6,73.1,52.6"/>
<path class="st0" d="M82.7,46.7h5.5c1.5,0,2.7,0.4,3.5,1.2c0.7,0.7,1,1.6,1,2.8v0c0,1.9-1.1,3.2-2.6,3.7l2.9,4.3H90l-2.6-3.9h-2.1
	v3.9h-2.6V46.7z M88,52.6c1.3,0,2-0.7,2-1.7v0c0-1.1-0.8-1.7-2.1-1.7h-2.6v3.5H88z"/>
<polygon class="st0" points="101.9,54 97.3,46.7 100.4,46.7 103.2,51.5 106.2,46.7 109.2,46.7 104.5,53.9 104.5,58.7 101.9,58.7 "/>
</svg>
