<svg xmlns="http://www.w3.org/2000/svg" viewBox="0 0 50 50"><defs><style>.cls-1{fill:#a2a09e;}</style></defs><g id="Layer_2" data-name="Layer 2"><g id="Layer_3" data-name="Layer 3"><rect class="cls-1" x="13.23" y="20.98" width="5.7" height="15.93"/><path class="cls-1" d="M21.87,21h4.4v2.21S26.94,21,31,21c3.36,0,5.76,1.31,5.76,4.9v11h-4.7s0-9.29,0-9.58a2.63,2.63,0,0,0-2.65-2.63,2.9,2.9,0,0,0-3.15,3v9.19H21.87Z"/><path class="cls-1" d="M18.93,15.94a2.85,2.85,0,1,1-2.85-2.84,2.85,2.85,0,0,1,2.85,2.84"/><path class="cls-1" d="M43.88,50H6.12A6.12,6.12,0,0,1,0,43.88V6.13A6.13,6.13,0,0,1,6.12,0H43.88A6.13,6.13,0,0,1,50,6.13V43.88A6.13,6.13,0,0,1,43.88,50M6.12,2.11a4,4,0,0,0-4,4V43.88a4,4,0,0,0,4,4H43.88a4,4,0,0,0,4-4V6.13a4,4,0,0,0-4-4Z"/></g></g></svg>