<?xml version="1.0" standalone="no"?>
<!DOCTYPE svg PUBLIC "-//W3C//DTD SVG 20010904//EN"
 "http://www.w3.org/TR/2001/REC-SVG-20010904/DTD/svg10.dtd">
<svg version="1.0" xmlns="http://www.w3.org/2000/svg"
 width="1024.000000pt" height="1024.000000pt" viewBox="0 0 1024.000000 1024.000000"
 preserveAspectRatio="xMidYMid meet">
<metadata>
Created by potrace 1.14, written by Peter Selinger 2001-2017
</metadata>
<g transform="translate(0.000000,1024.000000) scale(0.100000,-0.100000)"
fill="#000000" stroke="none">
<path d="M2360 9348 c-445 -46 -867 -283 -1142 -641 -124 -162 -216 -337 -267
-507 -12 -41 -26 -86 -31 -100 -5 -14 -12 -43 -16 -65 -3 -22 -12 -76 -19
-120 -10 -64 -13 -614 -14 -2795 0 -1595 4 -2734 9 -2760 5 -25 17 -83 26
-130 105 -535 500 -1005 1015 -1211 80 -32 219 -73 284 -84 22 -4 72 -13 120
-22 48 -9 5432 -11 5510 -2 314 37 594 151 845 342 69 53 239 219 280 275 14
19 34 46 46 60 131 170 260 471 291 677 2 17 6 36 8 43 3 7 8 50 12 95 10 111
9 5374 -1 5462 -6 60 -21 143 -40 234 -17 77 -70 219 -123 326 -47 95 -103
188 -115 193 -5 2 -8 8 -8 13 0 6 -26 42 -57 82 -213 268 -478 455 -798 562
-60 21 -194 53 -250 61 -27 3 -59 9 -70 12 -32 8 -5413 9 -5495 0z"/>
</g>
</svg>
